<svg id="_x33_0" enable-background="new 0 0 64 64" height="512" viewBox="0 0 64 64" width="512" xmlns="http://www.w3.org/2000/svg" xmlns:xlink="http://www.w3.org/1999/xlink"><linearGradient id="SVGID_1_" gradientUnits="userSpaceOnUse" x1="32" x2="32" y1="63" y2="1"><stop offset="0" stop-color="#9f2fff"/><stop offset="1" stop-color="#0bb1d3"/></linearGradient><path d="m59 1h-54c-2.206 0-4 1.794-4 4v40c0 1.474.81 2.75 2 3.444v11.556c0 1.654 1.346 3 3 3h52c1.654 0 3-1.346 3-3v-11.556c1.19-.694 2-1.97 2-3.444v-40c0-2.206-1.794-4-4-4zm0 59c0 .552-.448 1-1 1h-52c-.552 0-1-.448-1-1v-11h54zm2-15c0 1.103-.897 2-2 2h-54c-1.103 0-2-.897-2-2v-40c0-1.103.897-2 2-2h54c1.103 0 2 .897 2 2zm-48 14c2.206 0 4-1.794 4-4s-1.794-4-4-4-4 1.794-4 4 1.794 4 4 4zm0-6c1.103 0 2 .897 2 2s-.897 2-2 2-2-.897-2-2 .897-2 2-2zm-6-10h50v-36h-50zm2-34h46v32h-46zm22 44h-10v6h10zm-2 4h-6v-2h6zm14-4h-10v6h10zm-2 4h-6v-2h6zm14-4h-10v6h10zm-2 4h-6v-2h6zm-8.341-30h8.341v2h-9.659l-2.12-4.946-4.298 16.118-5.075-22.331-4.113 13.159h-4.456l-3.206-9.617-3.319 11.617h-5.754v-2h4.246l4.681-16.383 4.794 14.383h1.544l5.888-18.841 4.925 21.669 3.702-13.882zm-27.659 8h2v2h-2zm4 0h2v2h-2zm4 0h2v2h-2z" fill="url(#SVGID_1_)"/></svg>